<mxfile host="app.diagrams.net" modified="2023-11-28T19:25:50.664Z" agent="Mozilla/5.0 (X11; Linux x86_64) AppleWebKit/537.36 (KHTML, like Gecko) Chrome/119.0.0.0 Safari/537.36" etag="-lTCjXC8jW_BaPqG2ZSA" version="22.1.4" type="github">
  <diagram id="C5RBs43oDa-KdzZeNtuy" name="Page-1">
    <mxGraphModel dx="1674" dy="758" grid="0" gridSize="10" guides="1" tooltips="1" connect="1" arrows="1" fold="1" page="1" pageScale="1" pageWidth="827" pageHeight="1169" math="0" shadow="0">
      <root>
        <mxCell id="WIyWlLk6GJQsqaUBKTNV-0" />
        <mxCell id="WIyWlLk6GJQsqaUBKTNV-1" parent="WIyWlLk6GJQsqaUBKTNV-0" />
        <mxCell id="LRMFeotPfPuAk8Im08tJ-84" style="edgeStyle=orthogonalEdgeStyle;rounded=0;orthogonalLoop=1;jettySize=auto;html=1;entryX=0.5;entryY=0;entryDx=0;entryDy=0;" parent="WIyWlLk6GJQsqaUBKTNV-1" source="LRMFeotPfPuAk8Im08tJ-69" target="LRMFeotPfPuAk8Im08tJ-31" edge="1">
          <mxGeometry relative="1" as="geometry">
            <mxPoint x="617" y="120" as="targetPoint" />
          </mxGeometry>
        </mxCell>
        <mxCell id="LRMFeotPfPuAk8Im08tJ-26" value="&amp;nbsp;GameApp Class" style="swimlane;fontStyle=1;align=center;verticalAlign=middle;childLayout=stackLayout;horizontal=1;startSize=29;horizontalStack=0;resizeParent=1;resizeParentMax=0;resizeLast=0;collapsible=0;marginBottom=0;html=1;whiteSpace=wrap;fillColor=#71C9FC;strokeColor=#6c8ebf;swimlaneFillColor=default;" parent="WIyWlLk6GJQsqaUBKTNV-1" vertex="1">
          <mxGeometry x="320" y="50" width="275" height="446" as="geometry" />
        </mxCell>
        <mxCell id="LRMFeotPfPuAk8Im08tJ-58" value="Fields" style="text;html=1;align=center;verticalAlign=middle;resizable=0;points=[];autosize=1;strokeColor=#6c8ebf;fillColor=#dae8fc;" parent="LRMFeotPfPuAk8Im08tJ-26" vertex="1">
          <mxGeometry y="29" width="275" height="26" as="geometry" />
        </mxCell>
        <mxCell id="LRMFeotPfPuAk8Im08tJ-27" value="deck [ ] type: Map" style="text;html=1;strokeColor=none;fillColor=none;align=center;verticalAlign=middle;spacingLeft=4;spacingRight=4;overflow=hidden;rotatable=0;points=[[0,0.5],[1,0.5]];portConstraint=eastwest;whiteSpace=wrap;swimlaneFillColor=default;" parent="LRMFeotPfPuAk8Im08tJ-26" vertex="1">
          <mxGeometry y="55" width="275" height="25" as="geometry" />
        </mxCell>
        <mxCell id="LRMFeotPfPuAk8Im08tJ-30" value="players [ ] type: Player" style="text;html=1;strokeColor=none;fillColor=none;align=center;verticalAlign=middle;spacingLeft=4;spacingRight=4;overflow=hidden;rotatable=0;points=[[0,0.5],[1,0.5]];portConstraint=eastwest;whiteSpace=wrap;swimlaneFillColor=default;" parent="LRMFeotPfPuAk8Im08tJ-26" vertex="1">
          <mxGeometry y="80" width="275" height="25" as="geometry" />
        </mxCell>
        <mxCell id="LRMFeotPfPuAk8Im08tJ-80" value="sharedCards [ ] type: String Array" style="text;html=1;strokeColor=none;fillColor=none;align=center;verticalAlign=middle;spacingLeft=4;spacingRight=4;overflow=hidden;rotatable=0;points=[[0,0.5],[1,0.5]];portConstraint=eastwest;whiteSpace=wrap;swimlaneFillColor=default;" parent="LRMFeotPfPuAk8Im08tJ-26" vertex="1">
          <mxGeometry y="105" width="275" height="25" as="geometry" />
        </mxCell>
        <mxCell id="8AHgHYOAf-B68qgXxlV5-0" value="queries [ ] type: Objects" style="text;html=1;strokeColor=none;fillColor=none;align=center;verticalAlign=middle;spacingLeft=4;spacingRight=4;overflow=hidden;rotatable=0;points=[[0,0.5],[1,0.5]];portConstraint=eastwest;whiteSpace=wrap;swimlaneFillColor=default;" vertex="1" parent="LRMFeotPfPuAk8Im08tJ-26">
          <mxGeometry y="130" width="275" height="25" as="geometry" />
        </mxCell>
        <mxCell id="8AHgHYOAf-B68qgXxlV5-1" value="solution { }&amp;nbsp;" style="text;html=1;strokeColor=none;fillColor=none;align=center;verticalAlign=middle;spacingLeft=4;spacingRight=4;overflow=hidden;rotatable=0;points=[[0,0.5],[1,0.5]];portConstraint=eastwest;whiteSpace=wrap;swimlaneFillColor=default;" vertex="1" parent="LRMFeotPfPuAk8Im08tJ-26">
          <mxGeometry y="155" width="275" height="25" as="geometry" />
        </mxCell>
        <mxCell id="8AHgHYOAf-B68qgXxlV5-2" value="numCardsDec&amp;nbsp; type:&amp;nbsp; number" style="text;html=1;strokeColor=none;fillColor=none;align=center;verticalAlign=middle;spacingLeft=4;spacingRight=4;overflow=hidden;rotatable=0;points=[[0,0.5],[1,0.5]];portConstraint=eastwest;whiteSpace=wrap;swimlaneFillColor=default;" vertex="1" parent="LRMFeotPfPuAk8Im08tJ-26">
          <mxGeometry y="180" width="275" height="25" as="geometry" />
        </mxCell>
        <mxCell id="8AHgHYOAf-B68qgXxlV5-3" value="deckMap&amp;nbsp; type: Map" style="text;html=1;strokeColor=none;fillColor=none;align=center;verticalAlign=middle;spacingLeft=4;spacingRight=4;overflow=hidden;rotatable=0;points=[[0,0.5],[1,0.5]];portConstraint=eastwest;whiteSpace=wrap;swimlaneFillColor=default;" vertex="1" parent="LRMFeotPfPuAk8Im08tJ-26">
          <mxGeometry y="205" width="275" height="25" as="geometry" />
        </mxCell>
        <mxCell id="LRMFeotPfPuAk8Im08tJ-69" value="Methods" style="text;html=1;strokeColor=#6c8ebf;fillColor=#dae8fc;align=center;verticalAlign=middle;spacingLeft=4;spacingRight=4;overflow=hidden;rotatable=0;points=[[0,0.5],[1,0.5]];portConstraint=eastwest;whiteSpace=wrap;swimlaneFillColor=default;" parent="LRMFeotPfPuAk8Im08tJ-26" vertex="1">
          <mxGeometry y="230" width="275" height="25" as="geometry" />
        </mxCell>
        <mxCell id="LRMFeotPfPuAk8Im08tJ-28" value="constructor ( )&amp;nbsp;" style="text;html=1;strokeColor=none;fillColor=none;align=left;verticalAlign=middle;spacingLeft=4;spacingRight=4;overflow=hidden;rotatable=0;points=[[0,0.5],[1,0.5]];portConstraint=eastwest;whiteSpace=wrap;swimlaneFillColor=default;" parent="LRMFeotPfPuAk8Im08tJ-26" vertex="1">
          <mxGeometry y="255" width="275" height="25" as="geometry" />
        </mxCell>
        <mxCell id="LRMFeotPfPuAk8Im08tJ-61" value="playerHasCard( String, String)" style="text;html=1;strokeColor=none;fillColor=none;align=left;verticalAlign=middle;spacingLeft=4;spacingRight=4;overflow=hidden;rotatable=0;points=[[0,0.5],[1,0.5]];portConstraint=eastwest;whiteSpace=wrap;swimlaneFillColor=default;" parent="LRMFeotPfPuAk8Im08tJ-26" vertex="1">
          <mxGeometry y="280" width="275" height="25" as="geometry" />
        </mxCell>
        <mxCell id="LRMFeotPfPuAk8Im08tJ-62" value="playerHasNotCard(String, String)" style="text;html=1;strokeColor=none;fillColor=none;align=left;verticalAlign=middle;spacingLeft=4;spacingRight=4;overflow=hidden;rotatable=0;points=[[0,0.5],[1,0.5]];portConstraint=eastwest;whiteSpace=wrap;swimlaneFillColor=default;" parent="LRMFeotPfPuAk8Im08tJ-26" vertex="1">
          <mxGeometry y="305" width="275" height="25" as="geometry" />
        </mxCell>
        <mxCell id="LRMFeotPfPuAk8Im08tJ-63" value="loadCards({object})" style="text;html=1;strokeColor=none;fillColor=none;align=left;verticalAlign=middle;spacingLeft=4;spacingRight=4;overflow=hidden;rotatable=0;points=[[0,0.5],[1,0.5]];portConstraint=eastwest;whiteSpace=wrap;swimlaneFillColor=default;" parent="LRMFeotPfPuAk8Im08tJ-26" vertex="1">
          <mxGeometry y="330" width="275" height="25" as="geometry" />
        </mxCell>
        <mxCell id="LRMFeotPfPuAk8Im08tJ-82" value="submitQuery (object )" style="text;html=1;strokeColor=none;fillColor=none;align=left;verticalAlign=middle;spacingLeft=4;spacingRight=4;overflow=hidden;rotatable=0;points=[[0,0.5],[1,0.5]];portConstraint=eastwest;whiteSpace=wrap;swimlaneFillColor=default;" parent="LRMFeotPfPuAk8Im08tJ-26" vertex="1">
          <mxGeometry y="355" width="275" height="25" as="geometry" />
        </mxCell>
        <mxCell id="LRMFeotPfPuAk8Im08tJ-64" value="setQueryProb ( Array, Object)" style="text;html=1;strokeColor=none;fillColor=none;align=left;verticalAlign=middle;spacingLeft=4;spacingRight=4;overflow=hidden;rotatable=0;points=[[0,0.5],[1,0.5]];portConstraint=eastwest;whiteSpace=wrap;swimlaneFillColor=default;" parent="LRMFeotPfPuAk8Im08tJ-26" vertex="1">
          <mxGeometry y="380" width="275" height="33" as="geometry" />
        </mxCell>
        <mxCell id="LRMFeotPfPuAk8Im08tJ-83" value="updateStats ( )" style="text;html=1;strokeColor=none;fillColor=none;align=left;verticalAlign=middle;spacingLeft=4;spacingRight=4;overflow=hidden;rotatable=0;points=[[0,0.5],[1,0.5]];portConstraint=eastwest;whiteSpace=wrap;swimlaneFillColor=default;" parent="LRMFeotPfPuAk8Im08tJ-26" vertex="1">
          <mxGeometry y="413" width="275" height="33" as="geometry" />
        </mxCell>
        <mxCell id="LRMFeotPfPuAk8Im08tJ-31" value="Deck Class" style="swimlane;fontStyle=1;align=center;verticalAlign=top;childLayout=stackLayout;horizontal=1;startSize=26;horizontalStack=0;resizeParent=1;resizeParentMax=0;resizeLast=0;collapsible=1;marginBottom=0;whiteSpace=wrap;html=1;fillColor=#d5e8d4;strokeColor=#82b366;" parent="WIyWlLk6GJQsqaUBKTNV-1" vertex="1">
          <mxGeometry x="730" y="139" width="160" height="60" as="geometry">
            <mxRectangle x="250" y="260" width="100" height="30" as="alternateBounds" />
          </mxGeometry>
        </mxCell>
        <mxCell id="LRMFeotPfPuAk8Im08tJ-32" value="deck type: Map" style="text;strokeColor=none;fillColor=none;align=left;verticalAlign=top;spacingLeft=4;spacingRight=4;overflow=hidden;rotatable=0;points=[[0,0.5],[1,0.5]];portConstraint=eastwest;whiteSpace=wrap;html=1;" parent="LRMFeotPfPuAk8Im08tJ-31" vertex="1">
          <mxGeometry y="26" width="160" height="26" as="geometry" />
        </mxCell>
        <mxCell id="LRMFeotPfPuAk8Im08tJ-33" value="" style="line;strokeWidth=1;fillColor=none;align=left;verticalAlign=middle;spacingTop=-1;spacingLeft=3;spacingRight=3;rotatable=0;labelPosition=right;points=[];portConstraint=eastwest;strokeColor=inherit;" parent="LRMFeotPfPuAk8Im08tJ-31" vertex="1">
          <mxGeometry y="52" width="160" height="8" as="geometry" />
        </mxCell>
        <mxCell id="LRMFeotPfPuAk8Im08tJ-36" value="Player Class" style="swimlane;fontStyle=1;align=center;verticalAlign=top;childLayout=stackLayout;horizontal=1;startSize=26;horizontalStack=0;resizeParent=1;resizeParentMax=0;resizeLast=0;collapsible=1;marginBottom=0;whiteSpace=wrap;html=1;fillColor=#d5e8d4;strokeColor=#82b366;" parent="WIyWlLk6GJQsqaUBKTNV-1" vertex="1">
          <mxGeometry x="82" y="135" width="160" height="190" as="geometry">
            <mxRectangle x="250" y="260" width="100" height="30" as="alternateBounds" />
          </mxGeometry>
        </mxCell>
        <mxCell id="LRMFeotPfPuAk8Im08tJ-37" value="name" style="text;strokeColor=none;fillColor=none;align=left;verticalAlign=top;spacingLeft=4;spacingRight=4;overflow=hidden;rotatable=0;points=[[0,0.5],[1,0.5]];portConstraint=eastwest;whiteSpace=wrap;html=1;" parent="LRMFeotPfPuAk8Im08tJ-36" vertex="1">
          <mxGeometry y="26" width="160" height="26" as="geometry" />
        </mxCell>
        <mxCell id="LRMFeotPfPuAk8Im08tJ-38" value="turnNumber" style="text;strokeColor=none;fillColor=none;align=left;verticalAlign=top;spacingLeft=4;spacingRight=4;overflow=hidden;rotatable=0;points=[[0,0.5],[1,0.5]];portConstraint=eastwest;whiteSpace=wrap;html=1;" parent="LRMFeotPfPuAk8Im08tJ-36" vertex="1">
          <mxGeometry y="52" width="160" height="26" as="geometry" />
        </mxCell>
        <mxCell id="LRMFeotPfPuAk8Im08tJ-41" value="cardsHas [&amp;nbsp; ] type: Card" style="text;strokeColor=none;fillColor=none;align=left;verticalAlign=top;spacingLeft=4;spacingRight=4;overflow=hidden;rotatable=0;points=[[0,0.5],[1,0.5]];portConstraint=eastwest;whiteSpace=wrap;html=1;" parent="LRMFeotPfPuAk8Im08tJ-36" vertex="1">
          <mxGeometry y="78" width="160" height="26" as="geometry" />
        </mxCell>
        <mxCell id="LRMFeotPfPuAk8Im08tJ-42" value="cardsHasNot [ ] type: Card" style="text;strokeColor=none;fillColor=none;align=left;verticalAlign=top;spacingLeft=4;spacingRight=4;overflow=hidden;rotatable=0;points=[[0,0.5],[1,0.5]];portConstraint=eastwest;whiteSpace=wrap;html=1;" parent="LRMFeotPfPuAk8Im08tJ-36" vertex="1">
          <mxGeometry y="104" width="160" height="26" as="geometry" />
        </mxCell>
        <mxCell id="LRMFeotPfPuAk8Im08tJ-39" value="" style="line;strokeWidth=1;fillColor=none;align=left;verticalAlign=middle;spacingTop=-1;spacingLeft=3;spacingRight=3;rotatable=0;labelPosition=right;points=[];portConstraint=eastwest;strokeColor=inherit;" parent="LRMFeotPfPuAk8Im08tJ-36" vertex="1">
          <mxGeometry y="130" width="160" height="8" as="geometry" />
        </mxCell>
        <mxCell id="8AHgHYOAf-B68qgXxlV5-6" value="+ addCard(String)" style="text;strokeColor=none;fillColor=none;align=left;verticalAlign=top;spacingLeft=4;spacingRight=4;overflow=hidden;rotatable=0;points=[[0,0.5],[1,0.5]];portConstraint=eastwest;whiteSpace=wrap;html=1;" vertex="1" parent="LRMFeotPfPuAk8Im08tJ-36">
          <mxGeometry y="138" width="160" height="26" as="geometry" />
        </mxCell>
        <mxCell id="8AHgHYOAf-B68qgXxlV5-7" value="+ addNotHaveCard(String)" style="text;strokeColor=none;fillColor=none;align=left;verticalAlign=top;spacingLeft=4;spacingRight=4;overflow=hidden;rotatable=0;points=[[0,0.5],[1,0.5]];portConstraint=eastwest;whiteSpace=wrap;html=1;" vertex="1" parent="LRMFeotPfPuAk8Im08tJ-36">
          <mxGeometry y="164" width="160" height="26" as="geometry" />
        </mxCell>
        <mxCell id="LRMFeotPfPuAk8Im08tJ-52" value="" style="edgeStyle=orthogonalEdgeStyle;rounded=0;orthogonalLoop=1;jettySize=auto;html=1;entryX=0.5;entryY=0;entryDx=0;entryDy=0;" parent="WIyWlLk6GJQsqaUBKTNV-1" source="LRMFeotPfPuAk8Im08tJ-27" target="LRMFeotPfPuAk8Im08tJ-31" edge="1">
          <mxGeometry relative="1" as="geometry" />
        </mxCell>
        <mxCell id="LRMFeotPfPuAk8Im08tJ-78" value="Has Cards" style="edgeLabel;html=1;align=center;verticalAlign=middle;resizable=0;points=[];" parent="LRMFeotPfPuAk8Im08tJ-52" vertex="1" connectable="0">
          <mxGeometry x="0.0211" y="-1" relative="1" as="geometry">
            <mxPoint x="1" as="offset" />
          </mxGeometry>
        </mxCell>
        <mxCell id="LRMFeotPfPuAk8Im08tJ-56" style="edgeStyle=orthogonalEdgeStyle;rounded=0;orthogonalLoop=1;jettySize=auto;html=1;entryX=0.5;entryY=0;entryDx=0;entryDy=0;exitX=0;exitY=0.5;exitDx=0;exitDy=0;" parent="WIyWlLk6GJQsqaUBKTNV-1" source="LRMFeotPfPuAk8Im08tJ-30" target="LRMFeotPfPuAk8Im08tJ-36" edge="1">
          <mxGeometry relative="1" as="geometry" />
        </mxCell>
        <mxCell id="LRMFeotPfPuAk8Im08tJ-76" value="Has Players" style="edgeLabel;html=1;align=center;verticalAlign=middle;resizable=0;points=[];" parent="LRMFeotPfPuAk8Im08tJ-56" vertex="1" connectable="0">
          <mxGeometry x="0.4074" y="-4" relative="1" as="geometry">
            <mxPoint as="offset" />
          </mxGeometry>
        </mxCell>
      </root>
    </mxGraphModel>
  </diagram>
</mxfile>
